<svg width="12" height="9" viewBox="0 0 12 9" fill="none" xmlns="http://www.w3.org/2000/svg">
<path d="M5.23074 2.46156H11.3846M5.23074 2.46156C5.23074 3.31123 4.54195 4.00002 3.69228 4.00002C2.84261 4.00002 2.15382 3.31123 2.15382 2.46156M5.23074 2.46156C5.23074 1.61189 4.54195 0.923096 3.69228 0.923096C2.84261 0.923096 2.15382 1.61189 2.15382 2.46156M0.615356 2.46156H2.15382M9.0769 6.30771H11.3846M9.0769 6.30771C9.0769 7.15738 8.3881 7.84617 7.53843 7.84617C6.68876 7.84617 5.99997 7.15738 5.99997 6.30771M9.0769 6.30771C9.0769 5.45804 8.3881 4.76925 7.53843 4.76925C6.68876 4.76925 5.99997 5.45804 5.99997 6.30771M0.615356 6.30771H5.99997" stroke="#F5F5F5" stroke-linecap="round" stroke-linejoin="round"/>
</svg>
